<svg width="207" height="55" viewBox="0 0 207 55" fill="none" xmlns="http://www.w3.org/2000/svg">
<path d="M25.3642 22.9311V6.06127H19.5996V3.15072H34.774V6.06127H28.9812V22.9311H25.3642Z" fill="#1E1E1E"/>
<path d="M31.1565 22.9311V8.91529H34.3779L34.717 11.5433C35.2256 10.639 35.9132 9.92315 36.7798 9.39567C37.6652 8.84936 38.7013 8.5762 39.8881 8.5762V12.391H38.8709C38.0796 12.391 37.3732 12.5134 36.7515 12.7583C36.1299 13.0032 35.6401 13.4271 35.2821 14.0299C34.943 14.6328 34.7735 15.4711 34.7735 16.5449V22.9311H31.1565Z" fill="#1E1E1E"/>
<path d="M43.0336 6.73945C42.3743 6.73945 41.828 6.54165 41.3947 6.14604C40.9802 5.75043 40.773 5.25121 40.773 4.64838C40.773 4.04555 40.9802 3.55575 41.3947 3.17898C41.828 2.78337 42.3743 2.58557 43.0336 2.58557C43.693 2.58557 44.2299 2.78337 44.6443 3.17898C45.0776 3.55575 45.2942 4.04555 45.2942 4.64838C45.2942 5.25121 45.0776 5.75043 44.6443 6.14604C44.2299 6.54165 43.693 6.73945 43.0336 6.73945ZM41.2251 22.9311V8.91529H44.8421V22.9311H41.2251Z" fill="#1E1E1E"/>
<path d="M46.706 22.9311V2.58557H50.323V22.9311H46.706Z" fill="#1E1E1E"/>
<path d="M51.7264 22.9311V2.58557H55.3434V11.0629C55.8144 10.2905 56.4455 9.68767 57.2367 9.25438C58.0467 8.80226 58.9698 8.5762 60.0059 8.5762C61.7391 8.5762 63.0766 9.12251 64.0185 10.2151C64.9793 11.3078 65.4597 12.909 65.4597 15.0189V22.9311H61.8709V15.358C61.8709 14.1524 61.626 13.2293 61.1362 12.5888C60.6653 11.9483 59.9117 11.628 58.8756 11.628C57.8584 11.628 57.0106 11.986 56.3324 12.7018C55.6731 13.4177 55.3434 14.4161 55.3434 15.6971V22.9311H51.7264Z" fill="#1E1E1E"/>
<path d="M72.474 23.2702C71.2684 23.2702 70.2794 23.0818 69.507 22.705C68.7346 22.3094 68.16 21.7914 67.7833 21.1509C67.4065 20.5104 67.2181 19.8039 67.2181 19.0315C67.2181 17.7317 67.7268 16.6767 68.744 15.8667C69.7613 15.0566 71.2872 14.6516 73.3218 14.6516H76.8822V14.3125C76.8822 13.3517 76.6091 12.6453 76.0628 12.1932C75.5165 11.7411 74.8383 11.515 74.0282 11.515C73.2935 11.515 72.653 11.694 72.1067 12.0519C71.5604 12.391 71.2213 12.8996 71.0894 13.5778H67.5572C67.6514 12.5605 67.9905 11.6751 68.5745 10.9216C69.1773 10.168 69.9497 9.59347 70.8916 9.19787C71.8335 8.78342 72.8885 8.5762 74.0565 8.5762C76.0533 8.5762 77.6264 9.07542 78.7755 10.0739C79.9247 11.0723 80.4992 12.4852 80.4992 14.3125V22.9311H77.4191L77.08 20.6705C76.6656 21.424 76.0816 22.0457 75.3281 22.5355C74.5934 23.0253 73.642 23.2702 72.474 23.2702ZM73.2935 20.4444C74.3296 20.4444 75.1303 20.1053 75.6954 19.4271C76.2794 18.749 76.6468 17.9106 76.7975 16.9122H73.7174C72.7566 16.9122 72.069 17.0912 71.6546 17.4491C71.2401 17.7882 71.0329 18.2121 71.0329 18.7207C71.0329 19.267 71.2401 19.6909 71.6546 19.9923C72.069 20.2937 72.6153 20.4444 73.2935 20.4444Z" fill="#1E1E1E"/>
<ellipse cx="9.92642" cy="13.7321" rx="9.42642" ry="9.42642" fill="#1E1E1E"/>
<path fill-rule="evenodd" clip-rule="evenodd" d="M8.59723 10.9369L13.7397 10.9369V9.46375H5.88281V10.9369V18.0081H7.35597L7.35597 11.7848L13.0522 17.3206L14.0789 16.2641L8.59723 10.9369Z" fill="url(#paint0_linear_856_7418)"/>
<path d="M103.357 18.9279L101.005 11.0879H102.701L104.205 17.3439L105.869 11.3279H107.357L109.036 17.3439L110.541 11.0879H112.237L109.869 18.9279H108.253L106.621 13.1359L104.973 18.9279H103.357ZM115.45 18.9279L113.098 11.0879H114.794L116.298 17.3439L117.962 11.3279H119.45L121.13 17.3439L122.634 11.0879H124.33L121.962 18.9279H120.346L118.714 13.1359L117.066 18.9279H115.45ZM127.544 18.9279L125.192 11.0879H126.888L128.392 17.3439L130.056 11.3279H131.544L133.224 17.3439L134.728 11.0879H136.424L134.056 18.9279H132.44L130.808 13.1359L129.16 18.9279H127.544ZM137.581 18.9279V17.2319H139.309V18.9279H137.581ZM144.024 19.0879C143.528 19.0879 143.13 18.9972 142.832 18.8159C142.533 18.6345 142.314 18.4025 142.176 18.1199C142.042 17.8319 141.976 17.5305 141.976 17.2159V12.2079H140.632L140.76 11.0879H141.976V9.15186L143.416 9.00786V11.0879H145.48V12.2079H143.416V16.3359C143.416 16.8372 143.445 17.1999 143.504 17.4239C143.562 17.6479 143.706 17.7892 143.936 17.8479C144.17 17.9065 144.546 17.9359 145.064 17.9359H145.432L145.32 19.0879H144.024ZM147.21 18.9279V11.0879H148.394L148.57 12.3839C148.97 11.8879 149.352 11.5225 149.714 11.2879C150.082 11.0479 150.474 10.9279 150.89 10.9279C151.024 10.9279 151.146 10.9439 151.258 10.9759L151.114 12.5599C151.045 12.5439 150.97 12.5332 150.89 12.5279C150.816 12.5172 150.73 12.5119 150.634 12.5119C150.218 12.5119 149.834 12.6052 149.482 12.7919C149.136 12.9732 148.89 13.1732 148.746 13.3919V18.9279H147.21ZM152.773 18.9279V11.0879H154.213V18.9279H152.773ZM152.773 9.32786V7.72786H154.213V9.32786H152.773ZM158.68 19.0879C158.173 19.0879 157.77 18.9972 157.472 18.8159C157.178 18.6292 156.968 18.3919 156.84 18.1039C156.712 17.8159 156.648 17.5145 156.648 17.1999V6.92786H158.088V16.3679C158.088 16.8159 158.117 17.1519 158.176 17.3759C158.234 17.5999 158.352 17.7492 158.528 17.8239C158.709 17.8985 158.984 17.9359 159.352 17.9359L159.144 19.0879H158.68ZM160.929 18.9279V6.92786H162.385V12.4479L161.873 12.4159C162.241 11.9519 162.635 11.5892 163.057 11.3279C163.483 11.0612 164.027 10.9279 164.689 10.9279C165.366 10.9279 165.931 11.0799 166.385 11.3839C166.838 11.6879 167.177 12.1119 167.401 12.6559C167.63 13.1999 167.745 13.8345 167.745 14.5599V18.9279H166.305V14.7359C166.305 13.8719 166.145 13.2345 165.825 12.8239C165.51 12.4132 165.025 12.2079 164.369 12.2079C163.873 12.2079 163.433 12.3412 163.049 12.6079C162.67 12.8745 162.369 13.2319 162.145 13.6799L162.385 12.7999V18.9279H160.929ZM171.941 19.0879C171.455 19.0879 171.031 18.9892 170.669 18.7919C170.306 18.5945 170.023 18.3252 169.821 17.9839C169.623 17.6425 169.525 17.2532 169.525 16.8159C169.525 16.3732 169.621 15.9945 169.813 15.6799C170.01 15.3599 170.271 15.0959 170.597 14.8879C170.927 14.6745 171.295 14.5065 171.701 14.3839C172.106 14.2559 172.525 14.1652 172.957 14.1119C173.394 14.0532 173.813 14.0212 174.213 14.0159C174.213 13.2692 174.066 12.7812 173.773 12.5519C173.479 12.3225 173.055 12.2079 172.501 12.2079C172.207 12.2079 171.893 12.2532 171.557 12.3439C171.226 12.4345 170.853 12.6239 170.437 12.9119L170.229 11.7439C170.543 11.5039 170.935 11.3092 171.405 11.1599C171.874 11.0052 172.367 10.9279 172.885 10.9279C173.546 10.9279 174.079 11.0452 174.485 11.2799C174.89 11.5092 175.186 11.8985 175.373 12.4479C175.559 12.9972 175.653 13.7439 175.653 14.6879V16.2879C175.653 16.6612 175.669 16.9705 175.701 17.2159C175.738 17.4559 175.818 17.6372 175.941 17.7599C176.069 17.8772 176.271 17.9359 176.549 17.9359H176.693L176.469 19.0879H176.357C175.893 19.0879 175.533 19.0425 175.277 18.9519C175.026 18.8612 174.834 18.7305 174.701 18.5599C174.567 18.3892 174.447 18.1812 174.341 17.9359C174.047 18.2772 173.701 18.5545 173.301 18.7679C172.901 18.9812 172.447 19.0879 171.941 19.0879ZM172.213 17.9359C172.597 17.9359 172.967 17.8399 173.325 17.6479C173.687 17.4559 173.983 17.1999 174.213 16.8799V15.0079C173.45 15.0345 172.831 15.1092 172.357 15.2319C171.887 15.3545 171.543 15.5385 171.325 15.7839C171.106 16.0292 170.997 16.3465 170.997 16.7359C170.997 17.1572 171.109 17.4639 171.333 17.6559C171.562 17.8425 171.855 17.9359 172.213 17.9359ZM178.128 18.9279V17.2319H179.856V18.9279H178.128ZM184.356 19.0879C183.663 19.0879 183.087 19.0052 182.628 18.8399C182.175 18.6745 181.855 18.5279 181.668 18.3999L181.844 17.0079C182.015 17.1572 182.316 17.3279 182.748 17.5199C183.18 17.7119 183.695 17.8079 184.292 17.8079C184.799 17.8079 185.186 17.7225 185.452 17.5519C185.724 17.3812 185.86 17.1412 185.86 16.8319C185.86 16.5599 185.772 16.3412 185.596 16.1759C185.426 16.0052 185.218 15.8719 184.972 15.7759C184.732 15.6745 184.506 15.5945 184.292 15.5359C183.935 15.4399 183.564 15.3199 183.18 15.1759C182.802 15.0265 182.482 14.8052 182.22 14.5119C181.959 14.2185 181.828 13.8079 181.828 13.2799C181.828 12.8799 181.924 12.5012 182.116 12.1439C182.308 11.7812 182.62 11.4879 183.052 11.2639C183.484 11.0399 184.058 10.9279 184.772 10.9279C185.295 10.9279 185.719 10.9839 186.044 11.0959C186.375 11.2025 186.66 11.3172 186.9 11.4399L186.724 12.7519C186.495 12.5599 186.228 12.3972 185.924 12.2639C185.62 12.1305 185.247 12.0639 184.804 12.0639C184.356 12.0639 183.991 12.1492 183.708 12.3199C183.426 12.4852 183.284 12.7519 183.284 13.1199C183.284 13.4879 183.434 13.7492 183.732 13.9039C184.036 14.0585 184.495 14.2292 185.108 14.4159C185.3 14.4692 185.522 14.5465 185.772 14.6479C186.028 14.7492 186.276 14.8852 186.516 15.0559C186.756 15.2265 186.954 15.4505 187.108 15.7279C187.268 15.9999 187.348 16.3412 187.348 16.7519C187.348 17.0985 187.266 17.4532 187.1 17.8159C186.935 18.1732 186.636 18.4745 186.204 18.7199C185.772 18.9652 185.156 19.0879 184.356 19.0879ZM189.257 18.9279V11.0879H190.697V18.9279H189.257ZM189.257 9.32786V7.72786H190.697V9.32786H189.257ZM195.852 19.0879C195.356 19.0879 194.959 18.9972 194.66 18.8159C194.361 18.6345 194.143 18.4025 194.004 18.1199C193.871 17.8319 193.804 17.5305 193.804 17.2159V12.2079H192.46L192.588 11.0879H193.804V9.15186L195.244 9.00786V11.0879H197.308V12.2079H195.244V16.3359C195.244 16.8372 195.273 17.1999 195.332 17.4239C195.391 17.6479 195.535 17.7892 195.764 17.8479C195.999 17.9065 196.375 17.9359 196.892 17.9359H197.26L197.148 19.0879H195.852ZM202.736 19.0879C201.813 19.0879 201.037 18.8985 200.408 18.5199C199.779 18.1412 199.301 17.6399 198.976 17.0159C198.656 16.3865 198.496 15.6959 198.496 14.9439C198.496 14.2132 198.645 13.5439 198.944 12.9359C199.248 12.3279 199.685 11.8425 200.256 11.4799C200.832 11.1119 201.525 10.9279 202.336 10.9279C202.987 10.9279 203.565 11.0585 204.072 11.3199C204.584 11.5759 204.984 11.9519 205.272 12.4479C205.565 12.9385 205.712 13.5359 205.712 14.2399C205.712 14.3519 205.707 14.4745 205.696 14.6079C205.691 14.7359 205.675 14.8692 205.648 15.0079H199.968C200.037 15.7332 200.211 16.2985 200.488 16.7039C200.765 17.1092 201.115 17.3945 201.536 17.5599C201.957 17.7252 202.416 17.8079 202.912 17.8079C203.275 17.8079 203.653 17.7705 204.048 17.6959C204.443 17.6212 204.816 17.5039 205.168 17.3439L205.36 18.4799C205.056 18.6132 204.685 18.7492 204.248 18.8879C203.811 19.0212 203.307 19.0879 202.736 19.0879ZM200.096 14.0159H204.224C204.224 13.6479 204.155 13.3279 204.016 13.0559C203.877 12.7839 203.667 12.5759 203.384 12.4319C203.101 12.2825 202.741 12.2079 202.304 12.2079C201.664 12.2079 201.171 12.3679 200.824 12.6879C200.483 13.0025 200.24 13.4452 200.096 14.0159Z" fill="#1E1E1E"/>
<path d="M13.7253 48.9279V37.7279H17.8693C18.952 37.7279 19.912 37.9492 20.7493 38.3919C21.5866 38.8345 22.2426 39.4745 22.7173 40.3119C23.1973 41.1439 23.4373 42.1492 23.4373 43.3279C23.4373 44.5065 23.1973 45.5145 22.7173 46.3519C22.2426 47.1839 21.5866 47.8212 20.7493 48.2639C19.912 48.7065 18.952 48.9279 17.8693 48.9279H13.7253ZM15.2453 47.5519H17.8693C18.7226 47.5519 19.4373 47.3759 20.0133 47.0239C20.5946 46.6665 21.032 46.1705 21.3253 45.5359C21.624 44.9012 21.7733 44.1652 21.7733 43.3279C21.7733 42.4905 21.624 41.7545 21.3253 41.1199C21.032 40.4852 20.5946 39.9919 20.0133 39.6399C19.4373 39.2825 18.7226 39.1039 17.8693 39.1039H15.2453V47.5519ZM29.2126 49.0879C28.2899 49.0879 27.5139 48.8985 26.8846 48.5199C26.2552 48.1412 25.7779 47.6399 25.4526 47.0159C25.1326 46.3865 24.9726 45.6959 24.9726 44.9439C24.9726 44.2132 25.1219 43.5439 25.4206 42.9359C25.7246 42.3279 26.1619 41.8425 26.7326 41.4799C27.3086 41.1119 28.0019 40.9279 28.8126 40.9279C29.4632 40.9279 30.0419 41.0585 30.5486 41.3199C31.0606 41.5759 31.4606 41.9519 31.7486 42.4479C32.0419 42.9385 32.1886 43.5359 32.1886 44.2399C32.1886 44.3519 32.1832 44.4745 32.1726 44.6079C32.1672 44.7359 32.1512 44.8692 32.1246 45.0079H26.4446C26.5139 45.7332 26.6872 46.2985 26.9646 46.7039C27.2419 47.1092 27.5912 47.3945 28.0126 47.5599C28.4339 47.7252 28.8926 47.8079 29.3886 47.8079C29.7512 47.8079 30.1299 47.7705 30.5246 47.6959C30.9192 47.6212 31.2926 47.5039 31.6446 47.3439L31.8366 48.4799C31.5326 48.6132 31.1619 48.7492 30.7246 48.8879C30.2872 49.0212 29.7832 49.0879 29.2126 49.0879ZM26.5726 44.0159H30.7006C30.7006 43.6479 30.6312 43.3279 30.4926 43.0559C30.3539 42.7839 30.1432 42.5759 29.8606 42.4319C29.5779 42.2825 29.2179 42.2079 28.7806 42.2079C28.1406 42.2079 27.6472 42.3679 27.3006 42.6879C26.9592 43.0025 26.7166 43.4452 26.5726 44.0159ZM36.3641 49.0879C35.6707 49.0879 35.0947 49.0052 34.6361 48.8399C34.1827 48.6745 33.8627 48.5279 33.6761 48.3999L33.8521 47.0079C34.0227 47.1572 34.3241 47.3279 34.7561 47.5199C35.1881 47.7119 35.7027 47.8079 36.3001 47.8079C36.8067 47.8079 37.1934 47.7225 37.4601 47.5519C37.7321 47.3812 37.8681 47.1412 37.8681 46.8319C37.8681 46.5599 37.7801 46.3412 37.6041 46.1759C37.4334 46.0052 37.2254 45.8719 36.9801 45.7759C36.7401 45.6745 36.5134 45.5945 36.3001 45.5359C35.9427 45.4399 35.5721 45.3199 35.1881 45.1759C34.8094 45.0265 34.4894 44.8052 34.2281 44.5119C33.9667 44.2185 33.8361 43.8079 33.8361 43.2799C33.8361 42.8799 33.9321 42.5012 34.1241 42.1439C34.3161 41.7812 34.6281 41.4879 35.0601 41.2639C35.4921 41.0399 36.0654 40.9279 36.7801 40.9279C37.3027 40.9279 37.7267 40.9839 38.0521 41.0959C38.3827 41.2025 38.6681 41.3172 38.9081 41.4399L38.7321 42.7519C38.5027 42.5599 38.2361 42.3972 37.9321 42.2639C37.6281 42.1305 37.2547 42.0639 36.8121 42.0639C36.3641 42.0639 35.9987 42.1492 35.7161 42.3199C35.4334 42.4852 35.2921 42.7519 35.2921 43.1199C35.2921 43.4879 35.4414 43.7492 35.7401 43.9039C36.0441 44.0585 36.5027 44.2292 37.1161 44.4159C37.3081 44.4692 37.5294 44.5465 37.7801 44.6479C38.0361 44.7492 38.2841 44.8852 38.5241 45.0559C38.7641 45.2265 38.9614 45.4505 39.1161 45.7279C39.2761 45.9999 39.3561 46.3412 39.3561 46.7519C39.3561 47.0985 39.2734 47.4532 39.1081 47.8159C38.9427 48.1732 38.6441 48.4745 38.2121 48.7199C37.7801 48.9652 37.1641 49.0879 36.3641 49.0879ZM44.8651 49.0879C43.9797 49.0879 43.2357 48.9092 42.6331 48.5519C42.0357 48.1892 41.5824 47.7039 41.2731 47.0959C40.9691 46.4825 40.8171 45.8025 40.8171 45.0559C40.8171 44.2772 40.9637 43.5759 41.2571 42.9519C41.5557 42.3279 42.0117 41.8345 42.6251 41.4719C43.2384 41.1092 44.0224 40.9279 44.9771 40.9279C45.3877 40.9279 45.7744 40.9705 46.1371 41.0559C46.5051 41.1359 46.8331 41.2479 47.1211 41.3919L46.8971 42.6559C46.6037 42.5172 46.2917 42.4079 45.9611 42.3279C45.6357 42.2479 45.2971 42.2079 44.9451 42.2079C44.0811 42.2079 43.4224 42.4532 42.9691 42.9439C42.5157 43.4345 42.2891 44.1172 42.2891 44.9919C42.2891 45.8452 42.5051 46.5305 42.9371 47.0479C43.3691 47.5652 44.0277 47.8239 44.9131 47.8239C45.2757 47.8239 45.6224 47.7812 45.9531 47.6959C46.2891 47.6105 46.6091 47.4932 46.9131 47.3439L47.1051 48.4959C46.8917 48.6452 46.5797 48.7812 46.1691 48.9039C45.7584 49.0265 45.3237 49.0879 44.8651 49.0879ZM51.8467 49.0879C51.2334 49.0879 50.7107 48.9652 50.2787 48.7199C49.8467 48.4692 49.516 48.0905 49.2867 47.5839C49.0627 47.0772 48.9507 46.4319 48.9507 45.6479V41.0879H50.3907V45.2479C50.3907 46.0799 50.532 46.7145 50.8147 47.1519C51.1027 47.5892 51.5694 47.8079 52.2147 47.8079C52.6574 47.8079 53.068 47.7012 53.4467 47.4879C53.8254 47.2745 54.0867 46.9332 54.2307 46.4639L54.0227 47.2479V41.0879H55.4627V48.9279H54.1827L53.8947 47.3919L54.2787 47.6479C54.0174 48.1332 53.6974 48.4959 53.3187 48.7359C52.9454 48.9705 52.4547 49.0879 51.8467 49.0879ZM61.7773 49.0879C61.228 49.0879 60.6946 48.9572 60.1773 48.6959C59.6653 48.4292 59.308 48.0372 59.1053 47.5199L59.4573 47.2639L59.1853 48.9279H57.9053V36.9279H59.3453V42.6239L59.0413 42.3999C59.308 41.9679 59.6893 41.6159 60.1853 41.3439C60.6813 41.0665 61.212 40.9279 61.7773 40.9279C62.508 40.9279 63.1373 41.1199 63.6653 41.5039C64.1933 41.8825 64.5986 42.3839 64.8813 43.0079C65.1693 43.6265 65.3133 44.2932 65.3133 45.0079C65.3133 45.7705 65.156 46.4612 64.8413 47.0799C64.5266 47.6932 64.1026 48.1812 63.5693 48.5439C63.036 48.9065 62.4386 49.0879 61.7773 49.0879ZM61.6013 47.8079C62.06 47.8079 62.4573 47.6825 62.7933 47.4319C63.1293 47.1759 63.388 46.8372 63.5693 46.4159C63.7506 45.9892 63.8413 45.5199 63.8413 45.0079C63.8413 44.4745 63.7506 43.9972 63.5693 43.5759C63.388 43.1545 63.1293 42.8212 62.7933 42.5759C62.4573 42.3305 62.06 42.2079 61.6013 42.2079C61.1906 42.2079 60.8066 42.3119 60.4493 42.5199C60.0973 42.7225 59.812 43.0319 59.5933 43.4479C59.3746 43.8585 59.2653 44.3785 59.2653 45.0079C59.2653 45.6639 59.3746 46.1972 59.5933 46.6079C59.812 47.0185 60.0973 47.3225 60.4493 47.5199C60.8066 47.7119 61.1906 47.8079 61.6013 47.8079ZM67.2963 48.9279V41.0879H68.4803L68.6563 42.3839C69.0563 41.8879 69.4376 41.5225 69.8003 41.2879C70.1683 41.0479 70.5603 40.9279 70.9763 40.9279C71.1096 40.9279 71.2323 40.9439 71.3443 40.9759L71.2003 42.5599C71.131 42.5439 71.0563 42.5332 70.9763 42.5279C70.9016 42.5172 70.8163 42.5119 70.7203 42.5119C70.3043 42.5119 69.9203 42.6052 69.5683 42.7919C69.2216 42.9732 68.9763 43.1732 68.8323 43.3919V48.9279H67.2963ZM74.5734 49.0879C74.0881 49.0879 73.6641 48.9892 73.3014 48.7919C72.9388 48.5945 72.6561 48.3252 72.4534 47.9839C72.2561 47.6425 72.1574 47.2532 72.1574 46.8159C72.1574 46.3732 72.2534 45.9945 72.4454 45.6799C72.6428 45.3599 72.9041 45.0959 73.2294 44.8879C73.5601 44.6745 73.9281 44.5065 74.3334 44.3839C74.7388 44.2559 75.1574 44.1652 75.5894 44.1119C76.0268 44.0532 76.4454 44.0212 76.8454 44.0159C76.8454 43.2692 76.6988 42.7812 76.4054 42.5519C76.1121 42.3225 75.6881 42.2079 75.1334 42.2079C74.8401 42.2079 74.5254 42.2532 74.1894 42.3439C73.8588 42.4345 73.4854 42.6239 73.0694 42.9119L72.8614 41.7439C73.1761 41.5039 73.5681 41.3092 74.0374 41.1599C74.5068 41.0052 75.0001 40.9279 75.5174 40.9279C76.1788 40.9279 76.7121 41.0452 77.1174 41.2799C77.5228 41.5092 77.8188 41.8985 78.0054 42.4479C78.1921 42.9972 78.2854 43.7439 78.2854 44.6879V46.2879C78.2854 46.6612 78.3014 46.9705 78.3334 47.2159C78.3708 47.4559 78.4508 47.6372 78.5734 47.7599C78.7014 47.8772 78.9041 47.9359 79.1814 47.9359H79.3254L79.1014 49.0879H78.9894C78.5254 49.0879 78.1654 49.0425 77.9094 48.9519C77.6588 48.8612 77.4668 48.7305 77.3334 48.5599C77.2001 48.3892 77.0801 48.1812 76.9734 47.9359C76.6801 48.2772 76.3334 48.5545 75.9334 48.7679C75.5334 48.9812 75.0801 49.0879 74.5734 49.0879ZM74.8454 47.9359C75.2294 47.9359 75.6001 47.8399 75.9574 47.6479C76.3201 47.4559 76.6161 47.1999 76.8454 46.8799V45.0079C76.0828 45.0345 75.4641 45.1092 74.9894 45.2319C74.5201 45.3545 74.1761 45.5385 73.9574 45.7839C73.7388 46.0292 73.6294 46.3465 73.6294 46.7359C73.6294 47.1572 73.7414 47.4639 73.9654 47.6559C74.1948 47.8425 74.4881 47.9359 74.8454 47.9359ZM81.7849 50.6399H80.8729L81.4489 48.9279H80.8889V47.2319H82.6169V48.7679L81.7849 50.6399ZM92.7438 49.0879C91.8211 49.0879 91.0451 48.8985 90.4158 48.5199C89.7865 48.1412 89.3091 47.6399 88.9838 47.0159C88.6638 46.3865 88.5038 45.6959 88.5038 44.9439C88.5038 44.2132 88.6531 43.5439 88.9518 42.9359C89.2558 42.3279 89.6931 41.8425 90.2638 41.4799C90.8398 41.1119 91.5331 40.9279 92.3438 40.9279C92.9945 40.9279 93.5731 41.0585 94.0798 41.3199C94.5918 41.5759 94.9918 41.9519 95.2798 42.4479C95.5731 42.9385 95.7198 43.5359 95.7198 44.2399C95.7198 44.3519 95.7145 44.4745 95.7038 44.6079C95.6985 44.7359 95.6825 44.8692 95.6558 45.0079H89.9758C90.0451 45.7332 90.2185 46.2985 90.4958 46.7039C90.7731 47.1092 91.1225 47.3945 91.5438 47.5599C91.9651 47.7252 92.4238 47.8079 92.9198 47.8079C93.2825 47.8079 93.6611 47.7705 94.0558 47.6959C94.4505 47.6212 94.8238 47.5039 95.1758 47.3439L95.3678 48.4799C95.0638 48.6132 94.6931 48.7492 94.2558 48.8879C93.8185 49.0212 93.3145 49.0879 92.7438 49.0879ZM90.1038 44.0159H94.2318C94.2318 43.6479 94.1625 43.3279 94.0238 43.0559C93.8851 42.7839 93.6745 42.5759 93.3918 42.4319C93.1091 42.2825 92.7491 42.2079 92.3118 42.2079C91.6718 42.2079 91.1785 42.3679 90.8318 42.6879C90.4905 43.0025 90.2478 43.4452 90.1038 44.0159ZM99.8953 49.0879C99.202 49.0879 98.626 49.0052 98.1673 48.8399C97.714 48.6745 97.394 48.5279 97.2073 48.3999L97.3833 47.0079C97.554 47.1572 97.8553 47.3279 98.2873 47.5199C98.7193 47.7119 99.234 47.8079 99.8313 47.8079C100.338 47.8079 100.725 47.7225 100.991 47.5519C101.263 47.3812 101.399 47.1412 101.399 46.8319C101.399 46.5599 101.311 46.3412 101.135 46.1759C100.965 46.0052 100.757 45.8719 100.511 45.7759C100.271 45.6745 100.045 45.5945 99.8313 45.5359C99.474 45.4399 99.1033 45.3199 98.7193 45.1759C98.3406 45.0265 98.0206 44.8052 97.7593 44.5119C97.498 44.2185 97.3673 43.8079 97.3673 43.2799C97.3673 42.8799 97.4633 42.5012 97.6553 42.1439C97.8473 41.7812 98.1593 41.4879 98.5913 41.2639C99.0233 41.0399 99.5966 40.9279 100.311 40.9279C100.834 40.9279 101.258 40.9839 101.583 41.0959C101.914 41.2025 102.199 41.3172 102.439 41.4399L102.263 42.7519C102.034 42.5599 101.767 42.3972 101.463 42.2639C101.159 42.1305 100.786 42.0639 100.343 42.0639C99.8953 42.0639 99.53 42.1492 99.2473 42.3199C98.9646 42.4852 98.8233 42.7519 98.8233 43.1199C98.8233 43.4879 98.9726 43.7492 99.2713 43.9039C99.5753 44.0585 100.034 44.2292 100.647 44.4159C100.839 44.4692 101.061 44.5465 101.311 44.6479C101.567 44.7492 101.815 44.8852 102.055 45.0559C102.295 45.2265 102.493 45.4505 102.647 45.7279C102.807 45.9999 102.887 46.3412 102.887 46.7519C102.887 47.0985 102.805 47.4532 102.639 47.8159C102.474 48.1732 102.175 48.4745 101.743 48.7199C101.311 48.9652 100.695 49.0879 99.8953 49.0879ZM108.396 49.0879C107.511 49.0879 106.767 48.9092 106.164 48.5519C105.567 48.1892 105.114 47.7039 104.804 47.0959C104.5 46.4825 104.348 45.8025 104.348 45.0559C104.348 44.2772 104.495 43.5759 104.788 42.9519C105.087 42.3279 105.543 41.8345 106.156 41.4719C106.77 41.1092 107.554 40.9279 108.508 40.9279C108.919 40.9279 109.306 40.9705 109.668 41.0559C110.036 41.1359 110.364 41.2479 110.652 41.3919L110.428 42.6559C110.135 42.5172 109.823 42.4079 109.492 42.3279C109.167 42.2479 108.828 42.2079 108.476 42.2079C107.612 42.2079 106.954 42.4532 106.5 42.9439C106.047 43.4345 105.82 44.1172 105.82 44.9919C105.82 45.8452 106.036 46.5305 106.468 47.0479C106.9 47.5652 107.559 47.8239 108.444 47.8239C108.807 47.8239 109.154 47.7812 109.484 47.6959C109.82 47.6105 110.14 47.4932 110.444 47.3439L110.636 48.4959C110.423 48.6452 110.111 48.7812 109.7 48.9039C109.29 49.0265 108.855 49.0879 108.396 49.0879ZM115.877 49.0879C115.055 49.0879 114.354 48.9065 113.773 48.5439C113.197 48.1759 112.754 47.6852 112.445 47.0719C112.141 46.4532 111.989 45.7652 111.989 45.0079C111.989 44.2505 112.141 43.5652 112.445 42.9519C112.754 42.3332 113.197 41.8425 113.773 41.4799C114.354 41.1119 115.055 40.9279 115.877 40.9279C116.693 40.9279 117.391 41.1119 117.973 41.4799C118.554 41.8425 118.997 42.3332 119.301 42.9519C119.61 43.5652 119.765 44.2505 119.765 45.0079C119.765 45.7652 119.61 46.4532 119.301 47.0719C118.997 47.6852 118.554 48.1759 117.973 48.5439C117.391 48.9065 116.693 49.0879 115.877 49.0879ZM115.877 47.8079C116.655 47.8079 117.253 47.5625 117.669 47.0719C118.085 46.5759 118.293 45.8879 118.293 45.0079C118.293 44.1279 118.085 43.4425 117.669 42.9519C117.253 42.4559 116.655 42.2079 115.877 42.2079C115.103 42.2079 114.506 42.4559 114.085 42.9519C113.669 43.4425 113.461 44.1279 113.461 45.0079C113.461 45.8879 113.669 46.5759 114.085 47.0719C114.506 47.5625 115.103 47.8079 115.877 47.8079ZM123.765 49.0879C123.259 49.0879 122.856 48.9972 122.557 48.8159C122.264 48.6292 122.053 48.3919 121.925 48.1039C121.797 47.8159 121.733 47.5145 121.733 47.1999V36.9279H123.173V46.3679C123.173 46.8159 123.203 47.1519 123.261 47.3759C123.32 47.5999 123.437 47.7492 123.613 47.8239C123.795 47.8985 124.069 47.9359 124.437 47.9359L124.229 49.0879H123.765ZM126.015 48.9279V36.9279H127.471V42.4479L126.959 42.4159C127.327 41.9519 127.721 41.5892 128.143 41.3279C128.569 41.0612 129.113 40.9279 129.775 40.9279C130.452 40.9279 131.017 41.0799 131.471 41.3839C131.924 41.6879 132.263 42.1119 132.487 42.6559C132.716 43.1999 132.831 43.8345 132.831 44.5599V48.9279H131.391V44.7359C131.391 43.8719 131.231 43.2345 130.911 42.8239C130.596 42.4132 130.111 42.2079 129.455 42.2079C128.959 42.2079 128.519 42.3412 128.135 42.6079C127.756 42.8745 127.455 43.2319 127.231 43.6799L127.471 42.7999V48.9279H126.015ZM137.027 49.0879C136.541 49.0879 136.117 48.9892 135.755 48.7919C135.392 48.5945 135.109 48.3252 134.907 47.9839C134.709 47.6425 134.611 47.2532 134.611 46.8159C134.611 46.3732 134.707 45.9945 134.899 45.6799C135.096 45.3599 135.357 45.0959 135.683 44.8879C136.013 44.6745 136.381 44.5065 136.787 44.3839C137.192 44.2559 137.611 44.1652 138.043 44.1119C138.48 44.0532 138.899 44.0212 139.299 44.0159C139.299 43.2692 139.152 42.7812 138.859 42.5519C138.565 42.3225 138.141 42.2079 137.587 42.2079C137.293 42.2079 136.979 42.2532 136.643 42.3439C136.312 42.4345 135.939 42.6239 135.523 42.9119L135.315 41.7439C135.629 41.5039 136.021 41.3092 136.491 41.1599C136.96 41.0052 137.453 40.9279 137.971 40.9279C138.632 40.9279 139.165 41.0452 139.571 41.2799C139.976 41.5092 140.272 41.8985 140.459 42.4479C140.645 42.9972 140.739 43.7439 140.739 44.6879V46.2879C140.739 46.6612 140.755 46.9705 140.787 47.2159C140.824 47.4559 140.904 47.6372 141.027 47.7599C141.155 47.8772 141.357 47.9359 141.635 47.9359H141.779L141.555 49.0879H141.443C140.979 49.0879 140.619 49.0425 140.363 48.9519C140.112 48.8612 139.92 48.7305 139.787 48.5599C139.653 48.3892 139.533 48.1812 139.427 47.9359C139.133 48.2772 138.787 48.5545 138.387 48.7679C137.987 48.9812 137.533 49.0879 137.027 49.0879ZM137.299 47.9359C137.683 47.9359 138.053 47.8399 138.411 47.6479C138.773 47.4559 139.069 47.1999 139.299 46.8799V45.0079C138.536 45.0345 137.917 45.1092 137.443 45.2319C136.973 45.3545 136.629 45.5385 136.411 45.7839C136.192 46.0292 136.083 46.3465 136.083 46.7359C136.083 47.1572 136.195 47.4639 136.419 47.6559C136.648 47.8425 136.941 47.9359 137.299 47.9359ZM151.244 49.0879C150.321 49.0879 149.545 48.8985 148.916 48.5199C148.286 48.1412 147.809 47.6399 147.484 47.0159C147.164 46.3865 147.004 45.6959 147.004 44.9439C147.004 44.2132 147.153 43.5439 147.452 42.9359C147.756 42.3279 148.193 41.8425 148.764 41.4799C149.34 41.1119 150.033 40.9279 150.844 40.9279C151.494 40.9279 152.073 41.0585 152.58 41.3199C153.092 41.5759 153.492 41.9519 153.78 42.4479C154.073 42.9385 154.22 43.5359 154.22 44.2399C154.22 44.3519 154.214 44.4745 154.204 44.6079C154.198 44.7359 154.182 44.8692 154.156 45.0079H148.476C148.545 45.7332 148.718 46.2985 148.996 46.7039C149.273 47.1092 149.622 47.3945 150.044 47.5599C150.465 47.7252 150.924 47.8079 151.42 47.8079C151.782 47.8079 152.161 47.7705 152.556 47.6959C152.95 47.6212 153.324 47.5039 153.676 47.3439L153.868 48.4799C153.564 48.6132 153.193 48.7492 152.756 48.8879C152.318 49.0212 151.814 49.0879 151.244 49.0879ZM148.604 44.0159H152.732C152.732 43.6479 152.662 43.3279 152.524 43.0559C152.385 42.7839 152.174 42.5759 151.892 42.4319C151.609 42.2825 151.249 42.2079 150.812 42.2079C150.172 42.2079 149.678 42.3679 149.332 42.6879C148.99 43.0025 148.748 43.4452 148.604 44.0159ZM162.425 48.9279L159.433 41.0879H161.033L163.225 47.3439L165.401 41.0879H167.017L164.041 48.9279H162.425ZM171.923 49.0879C171.102 49.0879 170.401 48.9065 169.819 48.5439C169.243 48.1759 168.801 47.6852 168.491 47.0719C168.187 46.4532 168.035 45.7652 168.035 45.0079C168.035 44.2505 168.187 43.5652 168.491 42.9519C168.801 42.3332 169.243 41.8425 169.819 41.4799C170.401 41.1119 171.102 40.9279 171.923 40.9279C172.739 40.9279 173.438 41.1119 174.019 41.4799C174.601 41.8425 175.043 42.3332 175.347 42.9519C175.657 43.5652 175.811 44.2505 175.811 45.0079C175.811 45.7652 175.657 46.4532 175.347 47.0719C175.043 47.6852 174.601 48.1759 174.019 48.5439C173.438 48.9065 172.739 49.0879 171.923 49.0879ZM171.923 47.8079C172.702 47.8079 173.299 47.5625 173.715 47.0719C174.131 46.5759 174.339 45.8879 174.339 45.0079C174.339 44.1279 174.131 43.4425 173.715 42.9519C173.299 42.4559 172.702 42.2079 171.923 42.2079C171.15 42.2079 170.553 42.4559 170.131 42.9519C169.715 43.4425 169.507 44.1279 169.507 45.0079C169.507 45.8879 169.715 46.5759 170.131 47.0719C170.553 47.5625 171.15 47.8079 171.923 47.8079ZM180.391 49.0879C179.895 49.0879 179.498 48.9972 179.199 48.8159C178.9 48.6345 178.682 48.4025 178.543 48.1199C178.41 47.8319 178.343 47.5305 178.343 47.2159V42.2079H176.999L177.127 41.0879H178.343V39.1519L179.783 39.0079V41.0879H181.847V42.2079H179.783V46.3359C179.783 46.8372 179.812 47.1999 179.871 47.4239C179.93 47.6479 180.074 47.7892 180.303 47.8479C180.538 47.9065 180.914 47.9359 181.431 47.9359H181.799L181.687 49.0879H180.391ZM187.275 49.0879C186.352 49.0879 185.576 48.8985 184.947 48.5199C184.318 48.1412 183.84 47.6399 183.515 47.0159C183.195 46.3865 183.035 45.6959 183.035 44.9439C183.035 44.2132 183.184 43.5439 183.483 42.9359C183.787 42.3279 184.224 41.8425 184.795 41.4799C185.371 41.1119 186.064 40.9279 186.875 40.9279C187.526 40.9279 188.104 41.0585 188.611 41.3199C189.123 41.5759 189.523 41.9519 189.811 42.4479C190.104 42.9385 190.251 43.5359 190.251 44.2399C190.251 44.3519 190.246 44.4745 190.235 44.6079C190.23 44.7359 190.214 44.8692 190.187 45.0079H184.507C184.576 45.7332 184.75 46.2985 185.027 46.7039C185.304 47.1092 185.654 47.3945 186.075 47.5599C186.496 47.7252 186.955 47.8079 187.451 47.8079C187.814 47.8079 188.192 47.7705 188.587 47.6959C188.982 47.6212 189.355 47.5039 189.707 47.3439L189.899 48.4799C189.595 48.6132 189.224 48.7492 188.787 48.8879C188.35 49.0212 187.846 49.0879 187.275 49.0879ZM184.635 44.0159H188.763C188.763 43.6479 188.694 43.3279 188.555 43.0559C188.416 42.7839 188.206 42.5759 187.923 42.4319C187.64 42.2825 187.28 42.2079 186.843 42.2079C186.203 42.2079 185.71 42.3679 185.363 42.6879C185.022 43.0025 184.779 43.4452 184.635 44.0159ZM192.027 48.9279V47.2319H193.755V48.9279H192.027Z" fill="#1E1E1E"/>
<defs>
<linearGradient id="paint0_linear_856_7418" x1="5.88281" y1="9.46375" x2="13.7571" y2="16.7057" gradientUnits="userSpaceOnUse">
<stop stop-color="#FF8310"/>
<stop offset="0.607659" stop-color="#FF0000"/>
<stop offset="1" stop-color="#4D00AF"/>
</linearGradient>
</defs>
</svg>
