<svg width="25" height="25" viewBox="0 0 25 25" fill="none" xmlns="http://www.w3.org/2000/svg">
<g clip-path="url(#clip0_663_7536)">
<path d="M23.54 0.470886H1.46C0.929 0.470886 0.5 0.899886 0.5 1.43089V23.5109C0.5 24.0419 0.929 24.4709 1.46 24.4709H23.54C24.071 24.4709 24.5 24.0419 24.5 23.5109V1.43089C24.5 0.899886 24.071 0.470886 23.54 0.470886ZM22.58 22.5509H17.057V15.1769H20.177L20.645 11.5559H17.057V9.24289C17.057 8.19289 17.348 7.47889 18.851 7.47889H20.768V4.23889C20.435 4.19389 19.298 4.09489 17.972 4.09489C15.206 4.09489 13.313 5.78389 13.313 8.88289V11.5529H10.187V15.1739H13.316V22.5509H2.42V2.39089H22.58V22.5509Z" fill="#FF0000"/>
</g>
<defs>
<clipPath id="clip0_663_7536">
<rect width="24" height="24" fill="white" transform="translate(0.5 0.470886)"/>
</clipPath>
</defs>
</svg>
