<svg width="25" height="24" viewBox="0 0 25 24" fill="none" xmlns="http://www.w3.org/2000/svg">
<g clip-path="url(#clip0_582_1031)">
<path d="M12.5 0C9.3174 0 6.26516 1.26428 4.01472 3.51472C1.76428 5.76516 0.5 8.8174 0.5 12C0.5 15.1826 1.76428 18.2348 4.01472 20.4853C6.26516 22.7357 9.3174 24 12.5 24C15.6826 24 18.7348 22.7357 20.9853 20.4853C23.2357 18.2348 24.5 15.1826 24.5 12C24.5 8.8174 23.2357 5.76516 20.9853 3.51472C18.7348 1.26428 15.6826 0 12.5 0V0ZM1.98 12.9067H5.32667C5.38 14.12 5.54933 15.3253 5.83333 16.5067H2.95333C2.41627 15.3745 2.08661 14.1552 1.98 12.9067ZM13.4067 5.70667V1.58667C14.6916 2.07497 15.7474 3.02616 16.3667 4.25333C16.64 4.716 16.8813 5.19733 17.0867 5.69333L13.4067 5.70667ZM17.7 7.50667C18.0093 8.684 18.1933 9.89067 18.2467 11.1067H13.4067V7.50667H17.7ZM11.5933 1.58667V5.70667H7.91333C8.11902 5.21026 8.35962 4.72906 8.63333 4.26667C9.24996 3.03447 10.3061 2.07821 11.5933 1.58667ZM11.5933 7.50667V11.1067H6.76667C6.82 9.89067 7.004 8.684 7.31333 7.50667H11.5933ZM5.32667 11.0933H1.98C2.08661 9.84479 2.41627 8.62549 2.95333 7.49333H5.83333C5.54879 8.67419 5.37911 9.87981 5.32667 11.0933ZM6.76667 12.9067H11.5933V16.5067H7.31333C7.00405 15.3294 6.8208 14.1226 6.76667 12.9067ZM11.6067 18.24V22.36C10.3218 21.8717 9.26593 20.9205 8.64667 19.6933C8.37295 19.2309 8.13235 18.7497 7.92667 18.2533L11.6067 18.24ZM13.4067 22.36V18.3067H17.0867C16.881 18.8031 16.6404 19.2843 16.3667 19.7467C15.7474 20.9738 14.6916 21.925 13.4067 22.4133V22.36ZM13.4067 16.44V12.84H18.2333C18.1792 14.056 17.996 15.2628 17.6867 16.44H13.4067ZM19.6867 12.84H23.0333C22.9267 14.0885 22.5971 15.3078 22.06 16.44H19.1667C19.4467 15.28 19.616 14.0973 19.6733 12.9067L19.6867 12.84ZM19.6867 11.04C19.6256 9.84841 19.4515 8.66532 19.1667 7.50667H22.0467C22.584 8.64 22.9133 9.85867 23.02 11.1067L19.6867 11.04ZM21.02 5.70667H18.6333C18.2015 4.49373 17.5756 3.35897 16.78 2.34667C18.4392 3.09144 19.8804 4.24807 20.9667 5.70667H21.02ZM8.22 2.34667C7.42443 3.35897 6.7985 4.49373 6.36667 5.70667H4.03333C5.11963 4.24807 6.56082 3.09144 8.22 2.34667ZM4.02 18.3467H6.36667C6.7985 19.5596 7.42443 20.6944 8.22 21.7067C6.55623 20.9507 5.1146 19.7799 4.03333 18.3067L4.02 18.3467ZM16.7667 21.7067C17.5622 20.6944 18.1882 19.5596 18.62 18.3467H20.9667C19.8737 19.7857 18.4331 20.9235 16.78 21.6533L16.7667 21.7067Z" fill="#FF0000"/>
</g>
<defs>
<clipPath id="clip0_582_1031">
<rect width="24" height="24" fill="white" transform="translate(0.5)"/>
</clipPath>
</defs>
</svg>
