<svg width="201" height="52" viewBox="0 0 201 52" fill="none" xmlns="http://www.w3.org/2000/svg">
<path d="M62.219 51.0081V8.83352H47.8076V1.55717H85.7435V8.83352H71.2615V51.0081H62.219Z" fill="#F6F6F6"/>
<path d="M76.6999 51.0081V15.9686H84.7533L85.601 22.5385C86.8726 20.2779 88.5916 18.4882 90.7581 17.1695C92.9716 15.8037 95.5619 15.1209 98.5289 15.1209V24.6578H95.9857C94.0077 24.6578 92.2416 24.9639 90.6874 25.5762C89.1332 26.1884 87.9087 27.2481 87.0139 28.7552C86.1662 30.2623 85.7423 32.358 85.7423 35.0425V51.0081H76.6999Z" fill="#F6F6F6"/>
<path d="M106.393 10.529C104.744 10.529 103.379 10.0345 102.295 9.04545C101.259 8.05644 100.741 6.80839 100.741 5.30131C100.741 3.79424 101.259 2.56974 102.295 1.62781C103.379 0.638796 104.744 0.144287 106.393 0.144287C108.041 0.144287 109.383 0.638796 110.419 1.62781C111.503 2.56974 112.044 3.79424 112.044 5.30131C112.044 6.80839 111.503 8.05644 110.419 9.04545C109.383 10.0345 108.041 10.529 106.393 10.529ZM101.871 51.0081V15.9686H110.914V51.0081H101.871Z" fill="#F6F6F6"/>
<path d="M115.574 51.0081V0.144287H124.616V51.0081H115.574Z" fill="#F6F6F6"/>
<path d="M128.125 51.0081V0.144287H137.167V21.3375C138.345 19.4066 139.922 17.8995 141.9 16.8163C143.925 15.686 146.233 15.1209 148.823 15.1209C153.156 15.1209 156.5 16.4866 158.855 19.2182C161.257 21.9498 162.458 25.953 162.458 31.2277V51.0081H153.486V32.0755C153.486 29.0613 152.874 26.7536 151.649 25.1523C150.472 23.5511 148.588 22.7504 145.998 22.7504C143.454 22.7504 141.335 23.6453 139.64 25.4349C137.991 27.2246 137.167 29.7206 137.167 32.9232V51.0081H128.125Z" fill="#F6F6F6"/>
<path d="M179.994 51.8558C176.98 51.8558 174.507 51.3849 172.576 50.4429C170.645 49.4539 169.209 48.1588 168.267 46.5575C167.325 44.9562 166.854 43.1901 166.854 41.2592C166.854 38.0096 168.125 35.3722 170.669 33.3471C173.212 31.3219 177.027 30.3094 182.113 30.3094H191.014V29.4616C191.014 27.0597 190.331 25.2936 188.966 24.1633C187.6 23.033 185.904 22.4678 183.879 22.4678C182.042 22.4678 180.441 22.9153 179.075 23.8101C177.71 24.6578 176.862 25.9294 176.532 27.6249H167.702C167.937 25.0817 168.785 22.8682 170.245 20.9843C171.752 19.1005 173.683 17.664 176.038 16.675C178.392 15.6389 181.03 15.1209 183.95 15.1209C188.942 15.1209 192.874 16.3689 195.747 18.865C198.62 21.3611 200.057 24.8933 200.057 29.4616V51.0081H192.356L191.509 45.3566C190.473 47.2404 189.013 48.7946 187.129 50.0191C185.292 51.2436 182.914 51.8558 179.994 51.8558ZM182.042 44.7914C184.633 44.7914 186.634 43.9437 188.047 42.2482C189.507 40.5528 190.425 38.457 190.802 35.9609H183.102C180.7 35.9609 178.981 36.4083 177.945 37.3031C176.909 38.1509 176.391 39.2105 176.391 40.4821C176.391 41.8479 176.909 42.9076 177.945 43.6611C178.981 44.4146 180.347 44.7914 182.042 44.7914Z" fill="#F6F6F6"/>
<circle cx="23.6227" cy="28.0105" r="23.566" fill="#F6F6F6"/>
<path fill-rule="evenodd" clip-rule="evenodd" d="M20.2987 21.0227L33.1548 21.0227V17.3398H13.5127V21.0227V38.7006H17.1956L17.1956 23.1426L31.4361 36.982L34.0029 34.3408L20.2987 21.0227Z" fill="url(#paint0_linear_389_6345)"/>
<defs>
<linearGradient id="paint0_linear_389_6345" x1="13.5127" y1="17.3398" x2="33.1984" y2="35.4448" gradientUnits="userSpaceOnUse">
<stop stop-color="#FF8310"/>
<stop offset="0.607659" stop-color="#FF0000"/>
<stop offset="1" stop-color="#4D00AF"/>
</linearGradient>
</defs>
</svg>
