<svg width="24" height="25" viewBox="0 0 24 25" fill="none" xmlns="http://www.w3.org/2000/svg">
<path d="M18 8.78369C19.6569 8.78369 21 7.44055 21 5.78369C21 4.12684 19.6569 2.78369 18 2.78369C16.3431 2.78369 15 4.12684 15 5.78369C15 7.44055 16.3431 8.78369 18 8.78369Z" stroke="#FF0000" stroke-width="2" stroke-linecap="round" stroke-linejoin="round"/>
<path d="M6 15.7837C7.65685 15.7837 9 14.4405 9 12.7837C9 11.1268 7.65685 9.78369 6 9.78369C4.34315 9.78369 3 11.1268 3 12.7837C3 14.4405 4.34315 15.7837 6 15.7837Z" stroke="#FF0000" stroke-width="2" stroke-linecap="round" stroke-linejoin="round"/>
<path d="M18 22.7837C19.6569 22.7837 21 21.4405 21 19.7837C21 18.1268 19.6569 16.7837 18 16.7837C16.3431 16.7837 15 18.1268 15 19.7837C15 21.4405 16.3431 22.7837 18 22.7837Z" stroke="#FF0000" stroke-width="2" stroke-linecap="round" stroke-linejoin="round"/>
<path d="M8.58997 14.2937L15.42 18.2737" stroke="#FF0000" stroke-width="2" stroke-linecap="round" stroke-linejoin="round"/>
<path d="M15.41 7.2937L8.58997 11.2737" stroke="#FF0000" stroke-width="2" stroke-linecap="round" stroke-linejoin="round"/>
</svg>
