<svg width="151" height="39" viewBox="0 0 151 39" fill="none" xmlns="http://www.w3.org/2000/svg">
<path d="M47.1215 38.1479V6.51693H36.313V1.05966H64.7649V6.51693H53.9034V38.1479H47.1215Z" fill="#1E1E1E"/>
<path d="M57.9822 38.1479V11.8682H64.0223L64.658 16.7957C65.6117 15.1002 66.901 13.758 68.5258 12.7689C70.186 11.7446 72.1287 11.2324 74.354 11.2324V18.3852H72.4466C70.963 18.3852 69.6385 18.6147 68.4728 19.0739C67.3072 19.5331 66.3888 20.3279 65.7177 21.4582C65.0819 22.5885 64.764 24.1603 64.764 26.1737V38.1479H57.9822Z" fill="#1E1E1E"/>
<path d="M80.2518 7.78852C79.0155 7.78852 77.9912 7.41764 77.1788 6.67587C76.4017 5.93411 76.0131 4.99808 76.0131 3.86777C76.0131 2.73746 76.4017 1.81909 77.1788 1.11264C77.9912 0.370881 79.0155 0 80.2518 0C81.4881 0 82.4947 0.370881 83.2718 1.11264C84.0842 1.81909 84.4904 2.73746 84.4904 3.86777C84.4904 4.99808 84.0842 5.93411 83.2718 6.67587C82.4947 7.41764 81.4881 7.78852 80.2518 7.78852ZM76.8609 38.1479V11.8682H83.6427V38.1479H76.8609Z" fill="#1E1E1E"/>
<path d="M87.1375 38.1479V0H93.9194V38.1479H87.1375Z" fill="#1E1E1E"/>
<path d="M96.5508 38.1479V0H103.333V15.8949C104.216 14.4467 105.399 13.3164 106.883 12.504C108.401 11.6563 110.132 11.2324 112.075 11.2324C115.324 11.2324 117.832 12.2568 119.598 14.3054C121.4 16.3541 122.301 19.3565 122.301 23.3126V38.1479H115.572V23.9484C115.572 21.6878 115.113 19.957 114.194 18.756C113.311 17.5551 111.898 16.9546 109.956 16.9546C108.048 16.9546 106.459 17.6257 105.187 18.968C103.951 20.3102 103.333 22.1823 103.333 24.5842V38.1479H96.5508Z" fill="#1E1E1E"/>
<path d="M135.453 38.7837C133.192 38.7837 131.338 38.4304 129.889 37.724C128.441 36.9822 127.364 36.0109 126.657 34.8099C125.951 33.609 125.598 32.2844 125.598 30.8362C125.598 28.399 126.551 26.4209 128.459 24.9021C130.366 23.3832 133.227 22.6238 137.042 22.6238H143.718V21.988C143.718 20.1866 143.206 18.862 142.181 18.0143C141.157 17.1665 139.885 16.7427 138.367 16.7427C136.989 16.7427 135.788 17.0782 134.764 17.7494C133.739 18.3851 133.104 19.3388 132.856 20.6104H126.233C126.41 18.703 127.046 17.0429 128.141 15.63C129.271 14.2171 130.719 13.1398 132.486 12.3981C134.252 11.621 136.23 11.2324 138.42 11.2324C142.164 11.2324 145.113 12.1685 147.268 14.0405C149.422 15.9126 150.5 18.5618 150.5 21.988V38.1479H144.725L144.089 33.9092C143.312 35.3221 142.217 36.4877 140.804 37.4061C139.426 38.3245 137.643 38.7837 135.453 38.7837ZM136.989 33.4853C138.932 33.4853 140.433 32.8495 141.493 31.578C142.588 30.3064 143.276 28.7345 143.559 26.8625H137.784C135.982 26.8625 134.693 27.198 133.916 27.8691C133.139 28.5049 132.75 29.2997 132.75 30.2534C132.75 31.2777 133.139 32.0725 133.916 32.6376C134.693 33.2028 135.717 33.4853 136.989 33.4853Z" fill="#1E1E1E"/>
<ellipse cx="18.1745" cy="20.8998" rx="17.6745" ry="17.6745" fill="#1E1E1E"/>
<path fill-rule="evenodd" clip-rule="evenodd" d="M15.6813 15.6589L25.3234 15.6589V12.8967H10.5918V15.6589V28.9173H13.354L13.354 17.2488L24.0344 27.6283L25.9594 25.6475L15.6813 15.6589Z" fill="url(#paint0_linear_389_6467)"/>
<defs>
<linearGradient id="paint0_linear_389_6467" x1="10.5918" y1="12.8967" x2="25.3561" y2="26.4754" gradientUnits="userSpaceOnUse">
<stop stop-color="#FF8310"/>
<stop offset="0.607659" stop-color="#FF0000"/>
<stop offset="1" stop-color="#4D00AF"/>
</linearGradient>
</defs>
</svg>
