<svg width="51" height="50" viewBox="0 0 51 50" fill="none" xmlns="http://www.w3.org/2000/svg">
<g clip-path="url(#clip0_389_6355)">
<path fill-rule="evenodd" clip-rule="evenodd" d="M25.9434 0C12.1309 0 0.943359 11.1875 0.943359 25C0.943359 36.0625 8.09961 45.4062 18.0371 48.7188C19.2871 48.9375 19.7559 48.1875 19.7559 47.5312C19.7559 46.9375 19.7246 44.9688 19.7246 42.875C13.4434 44.0312 11.8184 41.3438 11.3184 39.9375C11.0371 39.2188 9.81836 37 8.75586 36.4062C7.88086 35.9375 6.63086 34.7812 8.72461 34.75C10.6934 34.7188 12.0996 36.5625 12.5684 37.3125C14.8184 41.0938 18.4121 40.0312 19.8496 39.375C20.0684 37.75 20.7246 36.6562 21.4434 36.0312C15.8809 35.4062 10.0684 33.25 10.0684 23.6875C10.0684 20.9688 11.0371 18.7188 12.6309 16.9688C12.3809 16.3438 11.5059 13.7812 12.8809 10.3438C12.8809 10.3438 14.9746 9.6875 19.7559 12.9062C21.7559 12.3438 23.8809 12.0625 26.0059 12.0625C28.1309 12.0625 30.2559 12.3438 32.2559 12.9062C37.0371 9.65625 39.1309 10.3438 39.1309 10.3438C40.5059 13.7812 39.6309 16.3438 39.3809 16.9688C40.9746 18.7188 41.9434 20.9375 41.9434 23.6875C41.9434 33.2812 36.0996 35.4062 30.5371 36.0312C31.4434 36.8125 32.2246 38.3125 32.2246 40.6562C32.2246 44 32.1934 46.6875 32.1934 47.5312C32.1934 48.1875 32.6621 48.9688 33.9121 48.7188C38.875 47.0432 43.1875 43.8535 46.2427 39.5987C49.2978 35.3439 50.9419 30.2381 50.9434 25C50.9434 11.1875 39.7559 0 25.9434 0Z" fill="#F6F6F6"/>
</g>
<defs>
<clipPath id="clip0_389_6355">
<rect width="50" height="50" fill="white" transform="translate(0.943359)"/>
</clipPath>
</defs>
</svg>
